# xmcd
#
# Track frame offsets: 
#        150
#        13560
#        28467
#        39893
#        53944
#        66530
#        77916
#        90509
#        102585
#        116818
#        130581
#        144675
#        157974
#        172084
#        184422
#        197280
#        210107
#        221669
#        233281
#        243948
#
# Disc length: 3462 seconds
#
# Revision: 4
# Processed by: cddbd v1.5.2PL0 Copyright (c) Steve Scherf et al.
# Submitted via: ExactAudioCopyFreeDBPlugin 1.0
#
DISCID=130d8414
DTITLE=Various Artist - Diggin' Deeper: 200 Legendary Blues Treasures
DTITLE=[disc 10]
DYEAR=2004
DGENRE=Blues
TTITLE0=John Lee Williamson - Better Cut That Out - John Lee Williamso
TTITLE0=n
TTITLE1=Ma Rainey - Jelly Bean Blues - Ma Rainey
TTITLE2=Muddy Waters - Little Anna Mea - Muddy Waters
TTITLE3=Sleepy John Estes - Brownsville Blues - Sleepy John Estes
TTITLE4=Brownie McGhee - Be Good to Me - Brownie McGhee
TTITLE5=Blind Boy Fuller and Sonny Terry - Harmonica and Washboard Break
TTITLE5=down - Blind Boy Fuller and Sonny Terry
TTITLE6=Bukka White - Fixin' to Die Blues - Bukka White
TTITLE7=Lightnin' Hopkins - Big Mama Jump - Lightnin' Hopkins
TTITLE8=John Lee Hooker - Henry's Swing Club - John Lee Hooker
TTITLE9=Kokomo Arnold - Red Beans and Rice - Kokomo Arnold
TTITLE10=Blind Willie McTell - Searching the Desert for the Blues - Bl
TTITLE10=ind Willie McTell
TTITLE11=Leadbelly - Ox Drivin' Blues - Leadbelly
TTITLE12=Jimmy Yancey - Yancey Limited - Jimmy Yancey
TTITLE13=Big Bill Broonzy - Hattie Blues - Big Bill Broonzy
TTITLE14=Arthur Crudup - Give Me a 32-30 - Arthur Crudup
TTITLE15=Mississippi John Hurt - Got the Blues - Mississippi John Hurt
TTITLE16=Joe Turner - Chewed Up Grass - Joe Turner
TTITLE17=Memphis Minnie - In My Girlish Days - Memphis Minnie
TTITLE18=Robert Johnson - Malted Milk - Robert Johnson
TTITLE19=Bessie Smith - Nobody in Town Can Bake a Sweet Jelly Roll lik
TTITLE19=e Mine - Bessie Smith
EXTD=10CD: Documents/Membran 222024-321 (2004), EAN 4011222220240, ISB
EXTD=N 978-3-87562-765-8.
EXTT0=(John Lee Williamson)
EXTT1=(trad./Ma Rainey)
EXTT2=(McKinley Morganfield)
EXTT3=(John Estes)
EXTT4=(Walter McGhee)
EXTT5=(Sonny Terry/G. Washington)
EXTT6=(Bukka White)
EXTT7=(Sam Hopkins)
EXTT8=(John Lee Hooker/Bernard Bresman)
EXTT9=(James Arnold)
EXTT10=(Willie McTell)
EXTT11=(Huddie Ledbetter)
EXTT12=(Jimmy Yancey)
EXTT13=(Bill Broonzy)
EXTT14=(Arthur Crudup/R. Knowling)
EXTT15=(John Hurt)
EXTT16=(Williams)
EXTT17=(E. Lawler)
EXTT18=(Robert Johnson)
EXTT19=(C. Williams/S. Williams)
PLAYORDER=
